<!--
Icons are consolidated here as an SVG sprite sheet.
SVGs are referenced by ThemeIcon component with the "id" prop.
Elements here are wrapped in #shadow-root (closed), so styles must inherit (like in stroke="inherit") to apply in the shadow-root.
Non-changing icons are welcome here, just do not specify a class

IDs are ordered alphabetically.

- Format
Name (Description): Class(es)

- Styles
Stroke: only applies stroke
Fill: only applies fill
Mono: black or white
Color: primary-color variable
Header: header-color variable
Gradient: modal-gradient-start variable
NA: Not applicable. Does not change with theme.

Note: Social media icons are color for only the Profile and Project pages. The dropdown uses Font Awesome icons instead.
-->

<svg xmlns="http://www.w3.org/2000/svg" style="display: none;">

  <!-- Add Person (Project Creator/Editor, Follow user): Color + Header fill  -->
  <symbol id="add-person" viewBox="0 0 75 74" fill="inherit">
    <path d="M46.7497 36.9999C53.5638 36.9999 59.083 31.4808 59.083 24.6666C59.083 17.8524 53.5638 12.3333 46.7497 12.3333C39.9355 12.3333 34.4163 17.8524 34.4163 24.6666C34.4163 31.4808 39.9355 36.9999 46.7497 36.9999ZM18.9997 30.8333V24.6666C18.9997 22.9708 17.6122 21.5833 15.9163 21.5833C14.2205 21.5833 12.833 22.9708 12.833 24.6666V30.8333H6.66634C4.97051 30.8333 3.58301 32.2208 3.58301 33.9166C3.58301 35.6124 4.97051 36.9999 6.66634 36.9999H12.833V43.1666C12.833 44.8624 14.2205 46.2499 15.9163 46.2499C17.6122 46.2499 18.9997 44.8624 18.9997 43.1666V36.9999H25.1663C26.8622 36.9999 28.2497 35.6124 28.2497 33.9166C28.2497 32.2208 26.8622 30.8333 25.1663 30.8333H18.9997ZM46.7497 43.1666C38.5172 43.1666 22.083 47.2983 22.083 55.4999V58.5833C22.083 60.2791 23.4705 61.6666 25.1663 61.6666H68.333C70.0288 61.6666 71.4163 60.2791 71.4163 58.5833V55.4999C71.4163 47.2983 54.9822 43.1666 46.7497 43.1666Z" fill="inherit"/>
  </symbol>

  <!-- Back: Color fill -->
  <symbol id="back" viewBox="0 0 70 25" fill="inherit">
    <path d="M1.20552 13.8385C0.520315 13.0777 0.520316 11.9223 1.20552 11.1615L6.26391 5.54525C7.49036 4.18354 9.75 5.05112 9.75 6.88373L9.75 18.1163C9.75 19.9489 7.49036 20.8165 6.26391 19.4547L1.20552 13.8385Z" fill="inherit"/>
    <path d="M22.2642 20V5.45455H28.0881C29.1581 5.45455 30.0507 5.61316 30.7656 5.9304C31.4806 6.24763 32.018 6.68797 32.3778 7.25142C32.7377 7.81013 32.9176 8.45407 32.9176 9.18324C32.9176 9.75142 32.804 10.2509 32.5767 10.6818C32.3494 11.108 32.0369 11.4583 31.6392 11.733C31.2462 12.0028 30.7964 12.1946 30.2898 12.3082V12.4503C30.8438 12.474 31.3622 12.6302 31.8452 12.919C32.3329 13.2079 32.7282 13.6127 33.0312 14.1335C33.3343 14.6496 33.4858 15.2652 33.4858 15.9801C33.4858 16.7519 33.294 17.4408 32.9105 18.0469C32.5317 18.6482 31.9706 19.1241 31.2273 19.4744C30.4839 19.8248 29.5677 20 28.4787 20H22.2642ZM25.3395 17.4858H27.8466C28.7036 17.4858 29.3286 17.3224 29.7216 16.9957C30.1146 16.6643 30.3111 16.224 30.3111 15.6747C30.3111 15.2723 30.214 14.9171 30.0199 14.6094C29.8258 14.3016 29.5488 14.0601 29.1889 13.8849C28.8338 13.7098 28.41 13.6222 27.9176 13.6222H25.3395V17.4858ZM25.3395 11.5412H27.6193C28.0407 11.5412 28.4148 11.4678 28.7415 11.321C29.0729 11.1695 29.3333 10.9564 29.5227 10.6818C29.7169 10.4072 29.8139 10.0781 29.8139 9.6946C29.8139 9.16903 29.6269 8.74527 29.2528 8.4233C28.8835 8.10133 28.358 7.94034 27.6761 7.94034H25.3395V11.5412ZM38.5408 20.206C37.8448 20.206 37.2246 20.0852 36.68 19.8438C36.1355 19.5975 35.7047 19.2353 35.3874 18.7571C35.0749 18.2741 34.9187 17.6728 34.9187 16.9531C34.9187 16.3471 35.0299 15.8381 35.2525 15.4261C35.475 15.0142 35.7781 14.6828 36.1616 14.4318C36.5451 14.1809 36.9807 13.9915 37.4684 13.8636C37.9608 13.7358 38.4769 13.6458 39.0167 13.5938C39.6512 13.5275 40.1625 13.4659 40.5508 13.4091C40.939 13.3475 41.2208 13.2576 41.396 13.1392C41.5711 13.0208 41.6587 12.8456 41.6587 12.6136V12.571C41.6587 12.1212 41.5167 11.7732 41.2326 11.527C40.9532 11.2808 40.5555 11.1577 40.0394 11.1577C39.4949 11.1577 39.0617 11.2784 38.7397 11.5199C38.4177 11.7566 38.2047 12.0549 38.1005 12.4148L35.3022 12.1875C35.4442 11.5246 35.7236 10.9517 36.1403 10.4688C36.5569 9.98106 37.0943 9.60701 37.7525 9.34659C38.4154 9.08144 39.1824 8.94886 40.0536 8.94886C40.6597 8.94886 41.2397 9.01989 41.7937 9.16193C42.3524 9.30398 42.8472 9.52415 43.2781 9.82244C43.7137 10.1207 44.0569 10.5043 44.3079 10.973C44.5588 11.437 44.6843 11.9934 44.6843 12.642V20H41.815V18.4872H41.7298C41.5546 18.8281 41.3202 19.1288 41.0266 19.3892C40.7331 19.6449 40.3803 19.8461 39.9684 19.9929C39.5565 20.1349 39.0806 20.206 38.5408 20.206ZM39.4073 18.1179C39.8524 18.1179 40.2454 18.0303 40.5863 17.8551C40.9272 17.6752 41.1947 17.4337 41.3888 17.1307C41.583 16.8277 41.68 16.4844 41.68 16.1009V14.9432C41.5853 15.0047 41.4551 15.0616 41.2894 15.1136C41.1284 15.161 40.9461 15.206 40.7425 15.2486C40.5389 15.2865 40.3353 15.322 40.1317 15.3551C39.9281 15.3835 39.7435 15.4096 39.5778 15.4332C39.2227 15.4853 38.9125 15.5682 38.6474 15.6818C38.3822 15.7955 38.1763 15.9493 38.0295 16.1435C37.8827 16.3329 37.8093 16.5696 37.8093 16.8537C37.8093 17.2656 37.9585 17.5805 38.2567 17.7983C38.5598 18.0114 38.9433 18.1179 39.4073 18.1179ZM51.9606 20.2131C50.8432 20.2131 49.882 19.9763 49.0771 19.5028C48.2769 19.0246 47.6613 18.3617 47.2305 17.5142C46.8043 16.6667 46.5913 15.6913 46.5913 14.5881C46.5913 13.4706 46.8067 12.4905 47.2376 11.6477C47.6732 10.8002 48.2911 10.1397 49.0913 9.66619C49.8915 9.18797 50.8432 8.94886 51.9464 8.94886C52.8981 8.94886 53.7314 9.12169 54.4464 9.46733C55.1613 9.81297 55.7272 10.2983 56.1438 10.9233C56.5605 11.5483 56.7901 12.2822 56.8327 13.125H53.9776C53.8971 12.5805 53.6841 12.1425 53.3384 11.8111C52.9975 11.4749 52.5501 11.3068 51.9961 11.3068C51.5273 11.3068 51.1178 11.4347 50.7674 11.6903C50.4218 11.9413 50.1519 12.3082 49.9577 12.7912C49.7636 13.2741 49.6665 13.8589 49.6665 14.5455C49.6665 15.2415 49.7612 15.8333 49.9506 16.321C50.1448 16.8087 50.417 17.1804 50.7674 17.4361C51.1178 17.6918 51.5273 17.8196 51.9961 17.8196C52.3417 17.8196 52.6519 17.7486 52.9265 17.6065C53.2058 17.4645 53.4355 17.2585 53.6154 16.9886C53.8001 16.714 53.9208 16.3849 53.9776 16.0014H56.8327C56.7854 16.8348 56.5581 17.5687 56.1509 18.2031C55.7485 18.8329 55.1921 19.3253 54.4819 19.6804C53.7717 20.0355 52.9312 20.2131 51.9606 20.2131ZM61.5114 16.8608L61.5185 13.2315H61.9588L65.4531 9.09091H68.9261L64.2315 14.5739H63.5142L61.5114 16.8608ZM58.7699 20V5.45455H61.7955V20H58.7699ZM65.5881 20L62.3778 15.2486L64.3949 13.1108L69.1321 20H65.5881Z" fill="inherit"/>
  </symbol>

  <!-- Bluesky: Color fill -->
  <symbol id="bluesky" viewBox="0 0 23 23" fill="inherit">
    <path d="M11.5003 10.9134C10.6321 9.22582 8.26883 6.07961 6.07137 4.52903C3.96591 3.04361 3.16378 3.29949 2.63766 3.53907C2.02816 3.81219 1.91699 4.74848 1.91699 5.29761C1.91699 5.84865 2.21887 9.8104 2.41533 10.4726C3.06699 12.6576 5.38041 13.3955 7.51366 13.1588C4.38949 13.6217 1.6132 14.7592 5.25199 18.8111C9.25591 22.9559 10.7394 17.9227 11.5003 15.3707C12.2612 17.9227 13.1372 22.7747 17.6758 18.8111C21.0837 15.3707 18.6121 13.6217 15.4879 13.1588C17.6202 13.3955 19.9346 12.6576 20.5853 10.4726C20.7818 9.81136 21.0837 5.84865 21.0837 5.29857C21.0837 4.74753 20.9725 3.81315 20.363 3.53715C19.8369 3.29949 19.0347 3.04169 16.9293 4.52711C14.7318 6.08057 12.3676 9.22678 11.5003 10.9134Z" fill="inherit"/>
  </symbol> 

  <!-- Cancel (Block icon): Mono fill -->
  <symbol id="cancel" viewBox="0 0 27 27" fill="inherit">
    <path d="M13.5 24.75C11.9438 24.75 10.4813 24.4545 9.1125 23.8635C7.74375 23.2725 6.55313 22.4711 5.54063 21.4594C4.52813 20.4476 3.72675 19.257 3.1365 17.8875C2.54625 16.518 2.25075 15.0555 2.25 13.5C2.24925 11.9445 2.54475 10.482 3.1365 9.1125C3.72825 7.743 4.52963 6.55238 5.54063 5.54063C6.55163 4.52888 7.74225 3.7275 9.1125 3.1365C10.4828 2.5455 11.9453 2.25 13.5 2.25C15.0548 2.25 16.5173 2.5455 17.8875 3.1365C19.2578 3.7275 20.4484 4.52888 21.4594 5.54063C22.4704 6.55238 23.2721 7.743 23.8646 9.1125C24.4571 10.482 24.7523 11.9445 24.75 13.5C24.7478 15.0555 24.4523 16.518 23.8635 17.8875C23.2748 19.257 22.4734 20.4476 21.4594 21.4594C20.4454 22.4711 19.2548 23.2729 17.8875 23.8646C16.5203 24.4564 15.0578 24.7515 13.5 24.75ZM13.5 22.5C14.5125 22.5 15.4875 22.3361 16.425 22.0084C17.3625 21.6806 18.225 21.207 19.0125 20.5875L6.4125 7.9875C5.79375 8.775 5.32013 9.6375 4.99163 10.575C4.66313 11.5125 4.49925 12.4875 4.5 13.5C4.5 16.0125 5.37188 18.1406 7.11563 19.8844C8.85938 21.6281 10.9875 22.5 13.5 22.5ZM20.5875 19.0125C21.2063 18.225 21.6799 17.3625 22.0084 16.425C22.3369 15.4875 22.5008 14.5125 22.5 13.5C22.5 10.9875 21.6281 8.85937 19.8844 7.11562C18.1406 5.37187 16.0125 4.5 13.5 4.5C12.4875 4.5 11.5125 4.66387 10.575 4.99162C9.6375 5.31937 8.775 5.793 7.9875 6.4125L20.5875 19.0125Z" fill="inherit"/>
  </symbol>

  <!-- Carousel Arrow (Discover Page, wider than Dropdown arrow): Color fill -->
  <symbol id="carousel-arrow" viewBox="0 0 18 50" fill="inherit">
    <path d="M17.3623 23.9568C17.7538 24.5972 17.7538 25.4028 17.3623 26.0431L3.70641 48.3818C2.65296 50.1051 6.75807e-07 49.3584 6.52418e-07 47.3387L1.35041e-07 2.66133C1.11652e-07 0.641575 2.65296 -0.105082 3.70641 1.61818L17.3623 23.9568Z" fill="inherit"/>
  </symbol>

  <!-- Compass (Discover tab): Mono stroke -->
  <symbol id="compass" viewBox="0 0 28 27" fill="none">
    <path d="M26.5 13.5C26.5 6.59625 20.9037 1 14 1C7.09625 1 1.5 6.59625 1.5 13.5C1.5 20.4037 7.09625 26 14 26C20.9037 26 26.5 20.4037 26.5 13.5Z" stroke="inherit" stroke-width="2" stroke-linecap="round" stroke-linejoin="round"/>
    <path d="M14 13.4999L13.9925 13.5074M14.5013 8.87245L18.1513 7.6562C19.2588 7.2862 19.8138 7.10245 20.1063 7.3937C20.3975 7.6862 20.2138 8.23995 19.8438 9.3487L18.6275 12.9987C17.9988 14.8862 17.6838 15.8299 17.0063 16.5062C16.33 17.1837 15.3863 17.4987 13.4988 18.1274L9.84877 19.3437C8.74002 19.7137 8.18627 19.8987 7.89377 19.6062C7.60127 19.3137 7.78627 18.7587 8.15627 17.6512L9.37252 14.0012C10.0013 12.1137 10.3163 11.1699 10.9938 10.4937C11.67 9.8162 12.6138 9.5012 14.5013 8.87245Z" stroke="inherit" stroke-width="2" stroke-linecap="round" stroke-linejoin="round"/>
  </symbol>

  <!-- Create (Wand, Create Project button): Color fill -->
  <symbol id="create" viewBox="0 0 26 25" fill="inherit">
    <path fill-rule="evenodd" clip-rule="evenodd" d="M25.3702 11.2496V12.424C25.1861 12.5581 24.9416 12.6058 24.7074 12.5311L23.1914 12.0478C22.8042 11.9244 22.5913 11.5135 22.716 11.13C22.8407 10.7466 23.2557 10.5359 23.6429 10.6593L25.1589 11.1426C25.2368 11.1675 25.3077 11.204 25.3702 11.2496ZM13.9078 0C13.8627 0 13.8168 0.00413419 13.7708 0.0127071C13.371 0.0871845 13.1079 0.468463 13.1831 0.864317L13.4776 2.41406C13.5528 2.80991 13.9379 3.07044 14.3377 2.99596C14.7375 2.92149 15.0006 2.54021 14.9254 2.14435L14.6309 0.59461C14.5643 0.244322 14.2551 0 13.9078 0ZM17.3873 16.6288C17.3121 16.2329 17.5752 15.8516 17.975 15.7772C18.3748 15.7027 18.7599 15.9632 18.8351 16.3591L19.1296 17.9088C19.2048 18.3047 18.9417 18.6859 18.5419 18.7604C18.1421 18.8349 17.757 18.5744 17.6818 18.1785L17.3873 16.6288ZM11.6213 13.9011C11.0285 13.3142 10.0675 13.3142 9.47468 13.9011L0.856694 22.4343C0.263915 23.0212 0.263914 23.9728 0.856694 24.5598C1.44947 25.1467 2.41056 25.1467 3.00334 24.5598L11.6213 16.0266C12.2141 15.4397 12.2141 14.4881 11.6213 13.9011ZM22.0704 2.5686C22.3666 2.29255 22.8328 2.30656 23.1116 2.5999C23.3904 2.89323 23.3762 3.35481 23.08 3.63085L21.9202 4.71157C21.6239 4.98761 21.1578 4.9736 20.879 4.68027C20.6002 4.38694 20.6143 3.92536 20.9106 3.64931L22.0704 2.5686ZM6.67831 6.7061C6.55364 7.08952 6.76648 7.50041 7.1537 7.62386L8.66968 8.10715C9.0569 8.2306 9.47188 8.01985 9.59656 7.63644C9.72124 7.25302 9.50839 6.84213 9.12117 6.71868L7.6052 6.23539C7.21797 6.11194 6.80299 6.32268 6.67831 6.7061ZM19.1263 2.67214C19.0315 1.76041 17.8591 1.43334 17.2975 2.1619L15.6041 4.35854C15.3163 4.7318 14.807 4.85999 14.3742 4.66812L11.8269 3.53896C10.982 3.16444 10.1098 4.00618 10.4662 4.85208L11.5407 7.4025C11.7233 7.83588 11.5808 8.33669 11.1965 8.61192L8.93528 10.2317C8.18529 10.7689 8.48538 11.9377 9.40343 12.055L12.1714 12.4088C12.6417 12.4689 13.0085 12.8415 13.0571 13.3086L13.3432 16.0575C13.438 16.9693 14.6104 17.2964 15.172 16.5678L16.8654 14.3712C17.1532 13.9979 17.6625 13.8697 18.0953 14.0616L20.6426 15.1907C21.4875 15.5652 22.3597 14.7235 22.0033 13.8776L20.9288 11.3272C20.7462 10.8938 20.8887 10.393 21.273 10.1178L23.5342 8.49803C24.2842 7.96081 23.9841 6.792 23.0661 6.67466L20.2981 6.32088C19.8278 6.26076 19.461 5.88815 19.4124 5.42105L19.1263 2.67214Z" fill="inherit"/>
  </symbol>

  <!-- Discord: Color fill -->
  <symbol id="discord" viewBox="0 0 27 27" fill="inherit">
    <path d="M21.6786 5.99625C20.1824 5.29875 18.5624 4.7925 16.8749 4.5C16.8452 4.50042 16.8169 4.51255 16.7961 4.53375C16.5936 4.905 16.3574 5.38875 16.1999 5.76C14.41 5.49017 12.5898 5.49017 10.7999 5.76C10.6424 5.3775 10.4061 4.905 10.1924 4.53375C10.1811 4.51125 10.1474 4.5 10.1136 4.5C8.42614 4.7925 6.81739 5.29875 5.30989 5.99625C5.29864 5.99625 5.28739 6.0075 5.27614 6.01875C2.21614 10.5975 1.37239 15.0525 1.78864 19.4625C1.78864 19.485 1.79989 19.5075 1.82239 19.5188C3.84739 21.0037 5.79364 21.9037 7.71739 22.5C7.75114 22.5112 7.78489 22.5 7.79614 22.4775C8.24614 21.8587 8.65114 21.2062 8.99989 20.52C9.02239 20.475 8.99989 20.43 8.95489 20.4187C8.31364 20.1712 7.70614 19.8788 7.10989 19.5413C7.06489 19.5188 7.06489 19.4513 7.09864 19.4175C7.22239 19.3275 7.34614 19.2263 7.46989 19.1363C7.49239 19.1138 7.52614 19.1138 7.54864 19.125C11.4186 20.8913 15.5924 20.8913 19.4174 19.125C19.4399 19.1138 19.4736 19.1138 19.4961 19.1363C19.6199 19.2375 19.7436 19.3275 19.8674 19.4288C19.9124 19.4625 19.9124 19.53 19.8561 19.5525C19.2711 19.9012 18.6524 20.1825 18.0111 20.43C17.9661 20.4412 17.9549 20.4975 17.9661 20.5312C18.3261 21.2175 18.7311 21.87 19.1699 22.4888C19.2036 22.5 19.2374 22.5112 19.2711 22.5C21.2061 21.9037 23.1524 21.0037 25.1774 19.5188C25.1999 19.5075 25.2111 19.485 25.2111 19.4625C25.7061 14.3662 24.3899 9.945 21.7236 6.01875C21.7124 6.0075 21.7011 5.99625 21.6786 5.99625ZM9.58489 16.7738C8.42614 16.7738 7.45864 15.705 7.45864 14.3888C7.45864 13.0725 8.40364 12.0037 9.58489 12.0037C10.7774 12.0037 11.7224 13.0837 11.7111 14.3888C11.7111 15.705 10.7661 16.7738 9.58489 16.7738ZM17.4261 16.7738C16.2674 16.7738 15.2999 15.705 15.2999 14.3888C15.2999 13.0725 16.2449 12.0037 17.4261 12.0037C18.6186 12.0037 19.5636 13.0837 19.5524 14.3888C19.5524 15.705 18.6186 16.7738 17.4261 16.7738Z" fill="inherit"/>
  </symbol>

  <!-- Dropdown Arrow (for dropdowns): Color fill -->
  <symbol id="dropdown-arrow" viewBox="0 0 13 9" fill="inherit">
    <path d="M8.23349 8.05618C7.43436 9.00497 5.9732 9.00497 5.17408 8.05618L1.42271 3.60225C0.327184 2.30154 1.25183 0.313839 2.95242 0.313839L10.4551 0.313839C12.1557 0.313838 13.0804 2.30155 11.9849 3.60225L8.23349 8.05618Z" fill="inherit"/>
  </symbol>

  <!-- Eye (toggle visibility): Mono fill -->
  <symbol id="eye" viewBox="0 0 19 14" fill="inherit">
    <path d="M9.42694 0.683594C2.53839 0.683594 0.468129 6.65523 0.449177 6.7157L0.353516 7.00088L0.448275 7.28606C0.468129 7.34652 2.53839 13.3182 9.42694 13.3182C16.3155 13.3182 18.3858 7.34652 18.4047 7.28606L18.5004 7.00088L18.4056 6.7157C18.3858 6.65523 16.3155 0.683594 9.42694 0.683594ZM9.42694 10.6108C7.43609 10.6108 5.81706 8.99173 5.81706 7.00088C5.81706 5.01003 7.43609 3.391 9.42694 3.391C11.4178 3.391 13.0368 5.01003 13.0368 7.00088C13.0368 8.99173 11.4178 10.6108 9.42694 10.6108Z" fill="inherit"/>
    <path d="M9.42701 5.19536C8.44873 5.19536 7.62207 6.02202 7.62207 7.0003C7.62207 7.97857 8.44873 8.80524 9.42701 8.80524C10.4053 8.80524 11.2319 7.97857 11.2319 7.0003C11.2319 6.02202 10.4053 5.19536 9.42701 5.19536Z" fill="inherit"/>
  </symbol>

  <!-- Eye Line (eye with line through, toggle visibility): Mono fill -->
  <symbol id="eye-line" viewBox="0 0 20 20" fill="inherit">
    <path d="M19.3372 9.7875C18.6233 7.91927 17.3784 6.30071 15.756 5.13125L18.7497 2.13125L17.8685 1.25L1.24973 17.8687L2.13098 18.75L5.31848 15.5688C6.74147 16.3974 8.35327 16.8472 9.99973 16.875C12.0369 16.7984 14.007 16.1265 15.6665 14.9424C17.326 13.7584 18.6021 12.114 19.3372 10.2125C19.3869 10.0752 19.3869 9.92482 19.3372 9.7875ZM9.99973 14.0625C9.13824 14.0621 8.29945 13.7862 7.60598 13.275L8.74973 12.1438C9.22398 12.4036 9.7697 12.5027 10.305 12.4261C10.8403 12.3495 11.3364 12.1014 11.7188 11.719C12.1012 11.3367 12.3492 10.8406 12.4258 10.3053C12.5024 9.76997 12.4033 9.22425 12.1435 8.75L13.2747 7.61875C13.715 8.2235 13.9795 8.93822 14.039 9.68391C14.0984 10.4296 13.9505 11.1772 13.6116 11.8441C13.2726 12.5109 12.7559 13.0711 12.1185 13.4626C11.4811 13.8541 10.7478 14.0617 9.99973 14.0625ZM2.83098 13.6312L5.95598 10.5062C5.93996 10.338 5.9337 10.169 5.93723 10C5.93889 8.92307 6.36743 7.89071 7.12894 7.1292C7.89045 6.3677 8.9228 5.93915 9.99973 5.9375C10.1648 5.9386 10.3296 5.94903 10.4935 5.96875L12.856 3.6125C11.9365 3.2968 10.9719 3.13217 9.99973 3.125C7.96256 3.20161 5.99248 3.87347 4.33299 5.05755C2.67349 6.24164 1.39733 7.88603 0.662234 9.7875C0.612589 9.92482 0.612589 10.0752 0.662234 10.2125C1.14289 11.4888 1.88113 12.6526 2.83098 13.6312Z" fill="inherit"/>
  </symbol>

  <!-- Facebook: Color fill -->
  <symbol id="facebook" viewBox="0 0 22 22" fill="inherit">
    <path d="M20.1663 11C20.1663 5.93998 16.0597 1.83331 10.9997 1.83331C5.93967 1.83331 1.83301 5.93998 1.83301 11C1.83301 15.4366 4.98634 19.1308 9.16634 19.9833V13.75H7.33301V11H9.16634V8.70831C9.16634 6.93915 10.6055 5.49998 12.3747 5.49998H14.6663V8.24998H12.833C12.3288 8.24998 11.9163 8.66248 11.9163 9.16665V11H14.6663V13.75H11.9163V20.1208C16.5455 19.6625 20.1663 15.7575 20.1663 11Z" fill="inherit"/>
  </symbol>

  <!-- Filter (Discover page): Color fill + stroke -->
  <symbol id="filter" viewBox="0 0 30 31" fill="inherit">
    <path d="M5.62488 9.25H24.3749M8.74988 15.5H21.2499M12.4999 21.75H17.4999" stroke="inherit" stroke-width="2.5" stroke-linecap="round" stroke-linejoin="round"/>
  </symbol>

  <!-- Folder (My Projects tab): Mono stroke -->
  <symbol id="folder" viewBox="0 0 26 25" fill="none">
    <g clip-path="#folder-clip">
      <path d="M1.39282 21.8748V3.12486C1.39282 2.65125 1.58096 2.19705 1.91585 1.86216C2.25073 1.52727 2.70493 1.33914 3.17854 1.33914H9.76782C10.1757 1.32725 10.5754 1.45545 10.9003 1.70238C11.2252 1.9493 11.4558 2.30007 11.5535 2.69629L12.1071 4.91057H22.8214C23.295 4.91057 23.7493 5.0987 24.0841 5.43359C24.4189 5.76848 24.6071 6.22268 24.6071 6.69629V21.8748C24.6071 22.3485 24.4189 22.8026 24.0841 23.1375C23.7493 23.4725 23.295 23.6605 22.8214 23.6605H3.17854C2.70493 23.6605 2.25073 23.4725 1.91585 23.1375C1.58096 22.8026 1.39282 22.3485 1.39282 21.8748Z" stroke="inherit" stroke-width="2" stroke-linecap="round" stroke-linejoin="round"/>
    </g>
    <defs>
      <clipPath id="folder-clip">
        <rect width="25" height="25" fill="inherit" transform="translate(0.5)"/>
      </clipPath>
    </defs>
  </symbol>

  <!-- Funfact (Lightbulb): Mono stroke -->
  <symbol id="funfact" viewBox="0 0 24 24" fill="none">
    <path d="M6.09 14.999C5.70066 14.119 5.49969 13.1673 5.5 12.205C5.5 8.49999 8.41 5.49899 12 5.49899C15.59 5.49899 18.5 8.50099 18.5 12.205C18.5003 13.1673 18.2993 14.119 17.91 14.999M12 1.99899V2.99899M22 11.999H21M3 11.999H2M19.07 4.92799L18.363 5.63499M5.637 5.63599L4.93 4.92899M14.517 19.306C15.527 18.979 15.933 18.054 16.047 17.124C16.081 16.846 15.852 16.615 15.572 16.615H8.477C8.40862 16.6139 8.3408 16.6273 8.278 16.6544C8.21521 16.6815 8.15888 16.7216 8.11275 16.7721C8.06662 16.8226 8.03173 16.8823 8.0104 16.9473C7.98906 17.0122 7.98177 17.081 7.989 17.149C8.101 18.077 8.383 18.755 9.453 19.305M14.517 19.306L9.453 19.305M14.517 19.306C14.396 21.251 13.834 22.021 12.007 21.999C10.053 22.035 9.603 21.082 9.453 19.305" stroke="inherit" stroke-width="1.5" stroke-linecap="round" stroke-linejoin="round"/>
  </symbol>

  <!-- Instagram: Color fill -->
  <symbol id="instagram" viewBox="0 0 24 25" fill="inherit">
    <path d="M7.8 2H16.2C19.4 2 22 4.6 22 7.8V16.2C22 17.7383 21.3889 19.2135 20.3012 20.3012C19.2135 21.3889 17.7383 22 16.2 22H7.8C4.6 22 2 19.4 2 16.2V7.8C2 6.26174 2.61107 4.78649 3.69878 3.69878C4.78649 2.61107 6.26174 2 7.8 2ZM7.6 4C6.64522 4 5.72955 4.37928 5.05442 5.05442C4.37928 5.72955 4 6.64522 4 7.6V16.4C4 18.39 5.61 20 7.6 20H16.4C17.3548 20 18.2705 19.6207 18.9456 18.9456C19.6207 18.2705 20 17.3548 20 16.4V7.6C20 5.61 18.39 4 16.4 4H7.6ZM17.25 5.5C17.5815 5.5 17.8995 5.6317 18.1339 5.86612C18.3683 6.10054 18.5 6.41848 18.5 6.75C18.5 7.08152 18.3683 7.39946 18.1339 7.63388C17.8995 7.8683 17.5815 8 17.25 8C16.9185 8 16.6005 7.8683 16.3661 7.63388C16.1317 7.39946 16 7.08152 16 6.75C16 6.41848 16.1317 6.10054 16.3661 5.86612C16.6005 5.6317 16.9185 5.5 17.25 5.5ZM12 7C13.3261 7 14.5979 7.52678 15.5355 8.46447C16.4732 9.40215 17 10.6739 17 12C17 13.3261 16.4732 14.5979 15.5355 15.5355C14.5979 16.4732 13.3261 17 12 17C10.6739 17 9.40215 16.4732 8.46447 15.5355C7.52678 14.5979 7 13.3261 7 12C7 10.6739 7.52678 9.40215 8.46447 8.46447C9.40215 7.52678 10.6739 7 12 7ZM12 9C11.2044 9 10.4413 9.31607 9.87868 9.87868C9.31607 10.4413 9 11.2044 9 12C9 12.7956 9.31607 13.5587 9.87868 14.1213C10.4413 14.6839 11.2044 15 12 15C12.7956 15 13.5587 14.6839 14.1213 14.1213C14.6839 13.5587 15 12.7956 15 12C15 11.2044 14.6839 10.4413 14.1213 9.87868C13.5587 9.31607 12.7956 9 12 9Z" fill="inherit"/>
  </symbol>

  <!-- Itch (.io): Color fill -->
  <symbol id="itch" viewBox="0 0 25 23" fill="inherit">
    <path d="M3.25937 0.395898C2.16875 1.04277 0.0210938 3.5084 0 4.15527V5.22949C0 6.58496 1.26953 7.78184 2.42109 7.78184C3.80469 7.78184 4.96094 6.63418 4.96094 5.27168C4.96094 6.63418 6.07109 7.78184 7.45859 7.78184C8.84219 7.78184 9.92031 6.63418 9.92031 5.27168C9.92031 6.63418 11.1047 7.78184 12.4883 7.78184H12.5133C13.9008 7.78184 15.0844 6.63418 15.0844 5.27168C15.0844 6.63418 16.1633 7.78184 17.5469 7.78184C18.9305 7.78184 20.0445 6.63418 20.0445 5.27168C20.0445 6.63418 21.1969 7.78184 22.5797 7.78184C23.7352 7.78184 25.0047 6.58496 25.0047 5.22949V4.15527C24.9797 3.5084 22.8359 1.04277 21.7414 0.395898C18.3516 0.274023 16.0039 0.25293 12.5047 0.25293C9.00156 0.256836 4.22891 0.309961 3.26406 0.395898H3.25937ZM9.90391 7.14121C9.77046 7.37016 9.60616 7.57968 9.41562 7.76387V7.76777C8.87207 8.2968 8.14366 8.59304 7.38516 8.59355C6.6255 8.59429 5.89609 8.29596 5.35469 7.76309C5.16929 7.5821 5.01136 7.37495 4.88594 7.14824C4.75547 7.38027 4.57344 7.57949 4.38203 7.76309C3.84062 8.29596 3.11122 8.59429 2.35156 8.59355H2.34766C2.25427 8.5895 2.16218 8.57024 2.075 8.53652C1.97992 9.55936 1.92155 10.5853 1.9 11.6123V11.6162C1.89609 12.0279 1.89609 12.3607 1.89141 12.8287C1.91641 15.2623 1.65156 20.7107 2.96641 22.0498C5.00078 22.5217 8.74453 22.7373 12.4953 22.7412H12.4992C16.2547 22.7373 19.9937 22.5217 22.0281 22.0498C23.343 20.7115 23.0781 15.2623 23.1031 12.8287C23.0992 12.3607 23.0992 12.0279 23.0945 11.6162V11.6123C23.0751 10.5852 23.0167 9.5592 22.9195 8.53652C22.8328 8.57171 22.7404 8.59103 22.6469 8.59355H22.643C21.8833 8.59429 21.1539 8.29596 20.6125 7.76309H20.6164C20.425 7.57949 20.2422 7.38105 20.1125 7.14824H20.1086C19.9844 7.3747 19.8278 7.58183 19.6437 7.76309C19.1018 8.2951 18.3727 8.59316 17.6133 8.59316C16.8538 8.59316 16.1248 8.2951 15.5828 7.76309C15.3949 7.58146 15.2332 7.37452 15.1023 7.14824L15.0938 7.13574C14.9594 7.37637 14.7969 7.5834 14.6133 7.76309C14.0719 8.29596 13.3425 8.59429 12.5828 8.59355H12.5789C12.5539 8.59408 12.5268 8.59277 12.4977 8.58965C12.4695 8.59277 12.4411 8.59408 12.4125 8.59355H12.4086C11.6506 8.59306 10.9231 8.29482 10.3828 7.76309C10.1949 7.58258 10.0346 7.37542 9.90703 7.14824L9.89844 7.13574L9.90391 7.14121ZM7.81641 9.83965C8.64219 9.84355 9.375 9.83965 10.2859 10.8326C11.0016 10.76 11.7508 10.7232 12.4992 10.7232C13.2477 10.7232 13.9969 10.76 14.7125 10.8326C15.6242 9.83965 16.3563 9.83965 17.182 9.83965H17.1859C17.5766 9.83965 19.1391 9.83965 20.2258 12.8959L21.3938 17.0904C22.2602 20.2115 21.1164 20.2896 19.693 20.2896C17.5773 20.2115 16.4055 18.674 16.4055 17.1357C15.2336 17.3318 13.8656 17.4256 12.4992 17.4256C11.1328 17.4256 9.76484 17.3318 8.59688 17.1357C8.59688 18.674 7.425 20.2115 5.30937 20.2896C3.88125 20.2857 2.7375 20.2115 3.60391 17.0904L4.77187 12.8959C5.8625 9.83965 7.425 9.83965 7.81562 9.83965H7.81641ZM12.5 12.2443C12.4961 12.2443 10.2742 14.2912 9.87187 15.0154L11.3281 14.9584V16.2279C11.3281 16.2896 11.9148 16.2646 12.5 16.2365C13.0852 16.2646 13.668 16.2896 13.668 16.2279V14.9584L15.1281 15.0154C14.7258 14.2912 12.5 12.2443 12.5 12.2443Z" fill="inherit"/>
  </symbol>

  <!-- Profile (Default profile icon): Color fill -->
  <symbol id="profile" viewBox="0 0 35 35" fill="inherit">
    <path d="M17.5666 0.280518C8.26465 0.280518 0.725708 7.98894 0.725708 17.5C0.725708 27.0111 8.26465 34.7195 17.5666 34.7195C26.8686 34.7195 34.4075 27.0111 34.4075 17.5C34.4075 7.98894 26.8686 0.280518 17.5666 0.280518ZM17.5666 8.89027C20.1829 8.89027 22.3031 11.0588 22.3031 13.7333C22.3031 16.4077 20.1849 18.5762 17.5666 18.5762C14.951 18.5762 12.8301 16.4077 12.8301 13.7333C12.8301 11.0588 14.9484 8.89027 17.5666 8.89027ZM17.5666 30.4146C14.0846 30.4146 10.9289 28.9665 8.63962 26.6284C9.70533 23.8161 12.3367 21.8049 15.4615 21.8049H19.6717C22.7991 21.8049 25.4305 23.8147 26.4936 26.6284C24.2043 28.9685 21.0466 30.4146 17.5666 30.4146Z" fill="inherit"/>
  </symbol>

  <!-- Link (Chain): Color fill -->
  <symbol id="link" viewBox="0 0 23 23" fill="inherit">
    <path d="M8.11234 10.8225C9.19814 9.73673 11.0918 9.73673 12.1776 10.8225L12.8551 11.5001L14.2102 10.145L13.5327 9.46744C12.629 8.56277 11.4253 8.06348 10.145 8.06348C8.86464 8.06348 7.66097 8.56277 6.75726 9.46744L4.72368 11.5001C3.82743 12.3999 3.32422 13.6182 3.32422 14.8882C3.32422 16.1583 3.82743 17.3766 4.72368 18.2764C5.16813 18.7217 5.69624 19.0748 6.27764 19.3152C6.85903 19.5557 7.48223 19.6788 8.11138 19.6775C8.7407 19.6789 9.36408 19.5559 9.94565 19.3154C10.5272 19.075 11.0555 18.7219 11.5001 18.2764L12.1776 17.5989L10.8225 16.2438L10.145 16.9214C9.60492 17.459 8.8739 17.7608 8.11187 17.7608C7.34983 17.7608 6.61881 17.459 6.07876 16.9214C5.54066 16.3815 5.2385 15.6504 5.2385 14.8882C5.2385 14.1261 5.54066 13.3949 6.07876 12.8551L8.11234 10.8225Z" fill="inherit"/>
    <path d="M11.5002 4.72367L10.8227 5.40121L12.1777 6.75629L12.8553 6.07875C13.3953 5.54112 14.1264 5.23928 14.8884 5.23928C15.6504 5.23928 16.3814 5.54112 16.9215 6.07875C17.4596 6.61855 17.7618 7.34966 17.7618 8.11186C17.7618 8.87405 17.4596 9.60516 16.9215 10.145L14.8879 12.1776C13.8021 13.2634 11.9085 13.2634 10.8227 12.1776L10.1451 11.5L8.79004 12.8551L9.46758 13.5327C10.3713 14.4373 11.575 14.9366 12.8553 14.9366C14.1356 14.9366 15.3393 14.4373 16.243 13.5327L18.2766 11.5C19.1728 10.6002 19.676 9.38189 19.676 8.11186C19.676 6.84182 19.1728 5.62352 18.2766 4.72367C17.3772 3.82648 16.1587 3.32263 14.8884 3.32263C13.618 3.32263 12.3996 3.82648 11.5002 4.72367Z" fill="inherit"/>
  </symbol>

  <!-- LinkedIn: Color fill -->
  <symbol id="linkedin" viewBox="0 0 24 25" fill="inherit">
    <path d="M19 3.66016C19.5304 3.66016 20.0391 3.87087 20.4142 4.24594C20.7893 4.62102 21 5.12972 21 5.66016V19.6602C21 20.1906 20.7893 20.6993 20.4142 21.0744C20.0391 21.4494 19.5304 21.6602 19 21.6602H5C4.46957 21.6602 3.96086 21.4494 3.58579 21.0744C3.21071 20.6993 3 20.1906 3 19.6602V5.66016C3 5.12972 3.21071 4.62102 3.58579 4.24594C3.96086 3.87087 4.46957 3.66016 5 3.66016H19ZM18.5 19.1602V13.8602C18.5 12.9956 18.1565 12.1664 17.5452 11.555C16.9338 10.9436 16.1046 10.6002 15.24 10.6002C14.39 10.6002 13.4 11.1202 12.92 11.9002V10.7902H10.13V19.1602H12.92V14.2302C12.92 13.4602 13.54 12.8302 14.31 12.8302C14.6813 12.8302 15.0374 12.9777 15.2999 13.2402C15.5625 13.5028 15.71 13.8589 15.71 14.2302V19.1602H18.5ZM6.88 9.22016C7.32556 9.22016 7.75288 9.04316 8.06794 8.7281C8.383 8.41303 8.56 7.98572 8.56 7.54016C8.56 6.61016 7.81 5.85016 6.88 5.85016C6.43178 5.85016 6.00193 6.02821 5.68499 6.34515C5.36805 6.66208 5.19 7.09194 5.19 7.54016C5.19 8.47016 5.95 9.22016 6.88 9.22016ZM8.27 19.1602V10.7902H5.5V19.1602H8.27Z" fill="inherit"/>
  </symbol>

  <!-- Location: Mono fill -->
  <symbol id="location" viewBox="0 0 12 16" fill="inherit">
    <path d="M6 7.6C5.43168 7.6 4.88663 7.38929 4.48477 7.01421C4.08291 6.63914 3.85714 6.13043 3.85714 5.6C3.85714 5.06957 4.08291 4.56086 4.48477 4.18579C4.88663 3.81071 5.43168 3.6 6 3.6C6.56832 3.6 7.11337 3.81071 7.51523 4.18579C7.91709 4.56086 8.14286 5.06957 8.14286 5.6C8.14286 5.86264 8.08743 6.12272 7.97974 6.36537C7.87205 6.60802 7.71421 6.8285 7.51523 7.01421C7.31625 7.19993 7.08002 7.34725 6.82004 7.44776C6.56005 7.54827 6.2814 7.6 6 7.6ZM6 0C4.4087 0 2.88258 0.589998 1.75736 1.6402C0.632141 2.69041 0 4.11479 0 5.6C0 9.8 6 16 6 16C6 16 12 9.8 12 5.6C12 4.11479 11.3679 2.69041 10.2426 1.6402C9.11742 0.589998 7.5913 0 6 0Z" fill="inherit"/>
  </symbol>

  <!-- Logout: Mono fill -->
  <symbol id="logout" viewBox="0 0 25 25" fill="inherit">
    <path d="M15.5676 1.30273C14.1436 1.30273 12.9947 1.30273 12.0915 1.42461C11.154 1.54961 10.3645 1.82044 9.73738 2.44648C9.19155 2.99336 8.91446 3.66523 8.76967 4.45482C8.62905 5.22253 8.60196 6.16107 8.59571 7.28815C8.59461 7.49535 8.67586 7.6945 8.82159 7.8418C8.96732 7.98909 9.1656 8.07246 9.3728 8.07357C9.58 8.07467 9.77915 7.99342 9.92645 7.84769C10.0737 7.70196 10.1571 7.50368 10.1582 7.29648C10.1645 6.15794 10.1936 5.35065 10.3061 4.73711C10.4155 4.14753 10.5895 3.80482 10.8426 3.55169C11.1311 3.26315 11.5363 3.07565 12.3009 2.97253C13.0874 2.86732 14.1301 2.86523 15.6249 2.86523H16.6665C18.1624 2.86523 19.2051 2.86732 19.9915 2.97253C20.7561 3.07565 21.1603 3.26419 21.4499 3.55169C21.7374 3.84023 21.9249 4.2444 22.028 5.01003C22.1343 5.79544 22.1353 6.83919 22.1353 8.33398V16.6673C22.1353 18.1621 22.1343 19.2048 22.028 19.9923C21.9249 20.7569 21.7374 21.1611 21.4488 21.4496C21.1603 21.7381 20.7561 21.9256 19.9915 22.0288C19.2051 22.134 18.1624 22.1361 16.6665 22.1361H15.6249C14.1301 22.1361 13.0874 22.134 12.2999 22.0288C11.5363 21.9256 11.1311 21.7371 10.8426 21.4496C10.5895 21.1954 10.4155 20.8538 10.3061 20.2642C10.1936 19.6507 10.1645 18.8434 10.1582 17.7048C10.1577 17.6022 10.1369 17.5007 10.0972 17.4062C10.0574 17.3116 9.99938 17.2258 9.92645 17.1536C9.85351 17.0815 9.76708 17.0244 9.67209 16.9856C9.57709 16.9469 9.47539 16.9272 9.3728 16.9277C9.2702 16.9283 9.16872 16.949 9.07414 16.9888C8.97957 17.0286 8.89375 17.0866 8.82159 17.1595C8.74943 17.2324 8.69235 17.3189 8.65359 17.4139C8.61483 17.5089 8.59517 17.6106 8.59571 17.7132C8.60196 18.8402 8.62905 19.7788 8.76967 20.5465C8.91551 21.3361 9.19155 22.0079 9.73842 22.5548C10.3645 23.1819 11.1551 23.4507 12.0926 23.5777C12.9947 23.6986 14.1436 23.6986 15.5676 23.6986H16.7238C18.1488 23.6986 19.2968 23.6986 20.1999 23.5777C21.1374 23.4507 21.927 23.1819 22.554 22.5548C23.1811 21.9277 23.4499 21.1382 23.577 20.2007C23.6978 19.2975 23.6978 18.1486 23.6978 16.7246V8.27669C23.6978 6.85273 23.6978 5.70378 23.577 4.80065C23.4509 3.86315 23.1811 3.07357 22.554 2.44648C21.927 1.8194 21.1374 1.55065 20.1999 1.42461C19.2968 1.30273 18.1478 1.30273 16.7238 1.30273H15.5676Z" fill="inherit"/>
    <path d="M15.6243 11.7191C15.8315 11.7191 16.0302 11.8014 16.1767 11.948C16.3232 12.0945 16.4055 12.2932 16.4055 12.5004C16.4055 12.7076 16.3232 12.9063 16.1767 13.0528C16.0302 13.1993 15.8315 13.2816 15.6243 13.2816H4.19407L6.23678 15.0316C6.39425 15.1664 6.49172 15.3583 6.50774 15.565C6.52375 15.7717 6.45701 15.9762 6.3222 16.1337C6.18738 16.2912 5.99552 16.3886 5.78884 16.4047C5.58216 16.4207 5.37758 16.3539 5.22011 16.2191L1.57428 13.0941C1.48851 13.0208 1.41966 12.9297 1.37244 12.8272C1.32523 12.7247 1.30078 12.6132 1.30078 12.5004C1.30078 12.3875 1.32523 12.276 1.37244 12.1735C1.41966 12.071 1.48851 11.98 1.57428 11.9066L5.22011 8.78163C5.29808 8.71487 5.38844 8.66413 5.48602 8.63229C5.58361 8.60046 5.68651 8.58816 5.78884 8.59609C5.89118 8.60402 5.99096 8.63203 6.08247 8.67852C6.17398 8.72501 6.25544 8.78907 6.3222 8.86704C6.38895 8.94502 6.43969 9.03537 6.47153 9.13296C6.50336 9.23054 6.51567 9.33344 6.50774 9.43578C6.4998 9.53811 6.47179 9.63789 6.4253 9.7294C6.37881 9.82091 6.31475 9.90237 6.23678 9.96913L4.19511 11.7191H15.6243Z" fill="inherit"/>
  </symbol>

  <!-- Major (Hat): Mono fill -->
  <symbol id="major" viewBox="0 0 24 24" fill="inherit">
    <path d="M10.514 6.49089C11.4764 6.15408 12.5247 6.15408 13.487 6.49089L21.087 9.15089C21.89 9.43289 21.89 10.5689 21.087 10.8509L13.487 13.5109C12.5247 13.8477 11.4764 13.8477 10.514 13.5109L5.00504 11.5809C4.80238 11.7309 4.65029 11.9392 4.56903 12.1779C4.7008 12.2692 4.8087 12.3907 4.88364 12.5324C4.95857 12.6741 4.99836 12.8317 4.99963 12.992C5.0009 13.1523 4.96363 13.3105 4.89096 13.4534C4.81828 13.5963 4.71233 13.7195 4.58203 13.8129L4.58604 13.8309L5.46104 17.7699C5.48049 17.8575 5.48002 17.9484 5.45968 18.0359C5.43934 18.1233 5.39963 18.205 5.3435 18.2751C5.28736 18.3452 5.21622 18.4017 5.13531 18.4406C5.05441 18.4795 4.96581 18.4998 4.87603 18.4999H3.12504C3.03518 18.4999 2.94646 18.4798 2.86543 18.4409C2.78441 18.4021 2.71314 18.3456 2.65689 18.2755C2.60064 18.2054 2.56084 18.1236 2.54045 18.0361C2.52005 17.9486 2.51957 17.8576 2.53904 17.7699L3.41404 13.8299L3.41904 13.8129C3.27892 13.7128 3.16703 13.5782 3.0942 13.4221C3.02138 13.2661 2.99009 13.0938 3.00337 12.9221C3.01665 12.7504 3.07404 12.5851 3.16999 12.4421C3.26594 12.2991 3.39719 12.1833 3.55104 12.1059C3.62468 11.7838 3.76541 11.4809 3.96404 11.2169L2.91404 10.8499C2.11004 10.5679 2.11004 9.43189 2.91404 9.14989L10.514 6.49089Z" fill="inherit"/>
    <path d="M6.39295 12.8291L6.06095 15.4831C6.00395 15.9351 6.18795 16.4031 6.58095 16.6791C7.73795 17.4941 9.62395 18.4991 12.0009 18.4991C13.9772 18.5053 15.9004 17.8608 17.4739 16.6651C17.8389 16.3851 17.9959 15.9381 17.9439 15.5131L17.6079 12.8281L13.4869 14.2701C12.5246 14.6069 11.4763 14.6069 10.5139 14.2701L6.39295 12.8291Z" fill="inherit"/>
  </symbol>

  <!-- Meet (Two people, Meet tab): Mono stroke -->
  <symbol id="meet" viewBox="0 0 26 26" fill="none">
    <g clip-path="#meet-clip"> 
      <path d="M19.1085 15.1168C17.5206 15.1168 16.2334 13.8296 16.2334 12.2417C16.2334 10.6538 17.5206 9.36658 19.1085 9.36658C20.6963 9.36658 21.9837 10.6538 21.9837 12.2417C21.9837 13.8296 20.6963 15.1168 19.1085 15.1168Z" stroke="inherit" stroke-width="2" stroke-linecap="round" stroke-linejoin="round"/>
      <path d="M14.9316 19.5549C15.3277 19.1364 15.786 18.778 16.2924 18.4934C17.1524 18.0103 18.1222 17.7566 19.1087 17.7566C20.0951 17.7566 21.0649 18.0103 21.9249 18.4934C22.2969 18.7024 22.643 18.9512 22.9574 19.2346" stroke="inherit" stroke-width="2" stroke-linecap="round" stroke-linejoin="round"/>
      <path d="M9.80647 14.1939C7.8388 14.1939 6.24365 12.5988 6.24365 10.6311C6.24365 8.66342 7.8388 7.0683 9.80647 7.0683C11.7742 7.0683 13.3693 8.66342 13.3693 10.6311C13.3693 12.5988 11.7742 14.1939 9.80647 14.1939Z" stroke="inherit" stroke-width="2" stroke-linecap="round" stroke-linejoin="round"/>
      <path d="M16.481 24.3692C16.3033 22.2412 15.773 20.8419 15.4823 20.3492C14.8633 19.2969 13.9934 18.427 12.9561 17.8235C11.9189 17.22 10.7492 16.903 9.55951 16.903C8.36982 16.903 7.20014 17.22 6.16289 17.8235C5.33466 18.3054 4.6131 18.9571 4.0408 19.736L3.67798 20.279" stroke="inherit" stroke-width="2" stroke-linecap="round" stroke-linejoin="round"/>
      <path d="M12.9692 24.9384C6.55876 24.9384 1.36206 19.7418 1.36206 13.3313C1.36206 6.92082 6.55876 1.72412 12.9692 1.72412C19.3797 1.72412 24.5763 6.92082 24.5763 13.3313C24.5763 19.7418 19.3797 24.9384 12.9692 24.9384Z" stroke="inherit" stroke-width="2" stroke-linecap="round" stroke-linejoin="round"/>
    </g>
    <defs>
      <clipPath id="meet-clip">
      <rect width="25" height="25" fill="white" transform="translate(0.5)"/>
      </clipPath>
    </defs>
  </symbol>

  <!-- Menu (3 vertical dots): Color fill -->
  <symbol id="menu" viewBox="0 0 25 26" fill="inherit">
    <path d="M14.0625 6.45001C14.0625 6.03561 13.8979 5.63818 13.6049 5.34516C13.3118 5.05213 12.9144 4.88751 12.5 4.88751C12.0856 4.88751 11.6882 5.05213 11.3951 5.34516C11.1021 5.63818 10.9375 6.03561 10.9375 6.45001C10.9375 6.86441 11.1021 7.26184 11.3951 7.55487C11.6882 7.84789 12.0856 8.01251 12.5 8.01251C12.9144 8.01251 13.3118 7.84789 13.6049 7.55487C13.8979 7.26184 14.0625 6.86441 14.0625 6.45001ZM12.5 11.1375C12.9144 11.1375 13.3118 11.3021 13.6049 11.5952C13.8979 11.8882 14.0625 12.2856 14.0625 12.7C14.0625 13.1144 13.8979 13.5118 13.6049 13.8049C13.3118 14.0979 12.9144 14.2625 12.5 14.2625C12.0856 14.2625 11.6882 14.0979 11.3951 13.8049C11.1021 13.5118 10.9375 13.1144 10.9375 12.7C10.9375 12.2856 11.1021 11.8882 11.3951 11.5952C11.6882 11.3021 12.0856 11.1375 12.5 11.1375ZM12.5 17.3875C12.9144 17.3875 13.3118 17.5521 13.6049 17.8452C13.8979 18.1382 14.0625 18.5356 14.0625 18.95C14.0625 19.3644 13.8979 19.7618 13.6049 20.0549C13.3118 20.3479 12.9144 20.5125 12.5 20.5125C12.0856 20.5125 11.6882 20.3479 11.3951 20.0549C11.1021 19.7618 10.9375 19.3644 10.9375 18.95C10.9375 18.5356 11.1021 18.1382 11.3951 17.8452C11.6882 17.5521 12.0856 17.3875 12.5 17.3875Z" fill="inherit"/>
  </symbol>

  <!-- Mode (Light/Dark mode): Mono stroke -->
  <symbol id="mode" viewBox="0 0 30 30" fill="none">
    <path d="M15 1.25V3.75M15 26.25V28.75M5.275 5.275L7.05 7.05M22.95 22.95L24.725 24.725M1.25 15H3.75M26.25 15H28.75M5.275 24.725L7.05 22.95M22.95 7.05L24.725 5.275M21.25 15C21.25 18.4518 18.4518 21.25 15 21.25C11.5482 21.25 8.75 18.4518 8.75 15C8.75 11.5482 11.5482 8.75 15 8.75C18.4518 8.75 21.25 11.5482 21.25 15Z" stroke="inherit" stroke-width="2" stroke-linecap="round" stroke-linejoin="round"/>
  </symbol>

  <!-- Pencil (Edit): Gradient fill -->
  <symbol id="pencil" viewBox="0 0 12 13" fill="inherit">
    <path fill-rule="evenodd" clip-rule="evenodd" d="M1.20769 9.29493L0.428592 11.4635C0.398675 11.5469 0.392404 11.6376 0.410528 11.7247C0.428652 11.8117 0.470405 11.8915 0.5308 11.9545C0.591196 12.0175 0.667681 12.061 0.751121 12.0798C0.834561 12.0986 0.92143 12.092 1.00135 12.0607L3.07835 11.2475C3.31608 11.1545 3.53199 11.0096 3.71159 10.8223L9.72795 4.54262C9.72795 4.54262 9.51805 3.886 8.88956 3.22938C8.26106 2.57338 7.63138 2.3543 7.63138 2.3543L1.61502 8.63398C1.43562 8.82143 1.29673 9.0468 1.20769 9.29493ZM8.47036 1.4786L9.29037 0.622699C9.43742 0.469219 9.63367 0.371437 9.83882 0.407332C10.1276 0.456841 10.5693 0.606608 10.9855 1.04167C11.4024 1.47674 11.5458 1.93718 11.5933 2.23857C11.6277 2.4527 11.534 2.65755 11.3869 2.81103L10.5663 3.66692C10.5663 3.66692 10.357 3.01092 9.72795 2.35492C9.09945 1.69768 8.47036 1.4786 8.47036 1.4786Z" fill="inherit"/>
  </symbol>

  <!-- Pronouns: Mono fill -->
  <symbol id="pronouns" viewBox="0 0 22 22" fill="inherit">
    <path d="M15.1249 2.0625V3.4375H17.5744L15.2541 5.77913C14.4248 5.15279 13.4141 4.81349 12.3749 4.8125C11.0893 4.8125 9.88888 5.32125 8.98001 6.23081C8.53075 6.67465 8.17408 7.20326 7.93067 7.78598C7.68725 8.36871 7.56194 8.99396 7.56201 9.62549C7.56207 10.257 7.68751 10.8822 7.93104 11.4649C8.17457 12.0476 8.53135 12.5761 8.9807 13.0199C9.57882 13.618 10.2911 14.0477 11.0858 14.2656C11.1642 14.2058 11.2522 14.1432 11.3223 14.0731C11.6105 13.78 11.8175 13.4171 11.9232 13.0199C11.1746 12.9278 10.4786 12.5872 9.94663 12.0526C9.29763 11.4043 8.93738 10.5435 8.93738 9.625C8.93738 8.7065 9.29832 7.84713 9.94801 7.19813C10.5956 6.54706 11.4564 6.1875 12.3749 6.1875C13.2934 6.1875 14.1534 6.54844 14.8018 7.19813C15.1224 7.51565 15.3769 7.89367 15.5503 8.31026C15.7238 8.72685 15.8129 9.17373 15.8124 9.625C15.8124 10.2197 15.6439 10.7731 15.3614 11.2791C15.4274 11.6339 15.4686 12.0065 15.4686 12.375C15.4686 12.7183 15.44 13.0552 15.3827 13.3856C15.5202 13.2736 15.6426 13.1464 15.7698 13.0199C16.6786 12.1096 17.1874 10.9106 17.1874 9.625C17.1874 8.57312 16.8409 7.5735 16.2208 6.74575L18.5624 4.42613V6.875H19.9374V2.0625H15.1249ZM10.9139 7.73438C10.8356 7.79419 10.7476 7.85675 10.6774 7.92687C10.3804 8.22525 10.1866 8.58687 10.0766 8.98081C10.8259 9.07706 11.51 9.40431 12.0531 9.94744C12.7028 10.5957 13.0638 11.4565 13.0638 12.3743C13.0638 13.2921 12.7028 14.1522 12.0531 14.8012C11.4041 15.4529 10.5434 15.8125 9.62488 15.8125C8.70638 15.8125 7.84632 15.4516 7.19801 14.8019C6.87704 14.4846 6.6224 14.1066 6.44889 13.69C6.27539 13.2733 6.18649 12.8263 6.18738 12.375C6.18738 11.7803 6.35582 11.2269 6.63838 10.7209C6.57014 10.3595 6.53424 9.99275 6.53113 9.625C6.53113 9.28217 6.55978 8.94529 6.61707 8.61437C6.47957 8.72644 6.35788 8.85362 6.23001 8.98081C5.32251 9.889 4.81238 11.0894 4.81238 12.375C4.81238 13.4269 5.15888 14.4265 5.77901 15.2542L4.61988 16.4141L3.24488 15.0391L2.25488 16.0057L3.62988 17.3807L2.25488 18.7557L3.24488 19.7457L4.61988 18.3707L5.99488 19.7457L6.96082 18.7557L5.58582 17.3807L6.74632 16.2216C7.57482 16.8489 8.5857 17.1881 9.62488 17.1875C10.9105 17.1875 12.1109 16.6788 13.0198 15.7692C13.9286 14.861 14.4374 13.6606 14.4374 12.375C14.4374 11.0894 13.9286 9.89038 13.0191 8.98013C12.4209 8.382 11.7087 7.95231 10.9139 7.73438Z" fill="inherit"/>
  </symbol>

  <!-- Role (Suitcase): Mono fill -->
  <symbol id="role" viewBox="0 0 20 20" fill="inherit">
    <path d="M15.8334 5.41671H13.3334V4.58337C13.3334 3.92033 13.07 3.28445 12.6012 2.81561C12.1323 2.34677 11.4965 2.08337 10.8334 2.08337H9.16675C8.50371 2.08337 7.86782 2.34677 7.39898 2.81561C6.93014 3.28445 6.66675 3.92033 6.66675 4.58337V5.41671H4.16675C3.50371 5.41671 2.86782 5.6801 2.39898 6.14894C1.93014 6.61778 1.66675 7.25367 1.66675 7.91671V15.4167C1.66675 16.0797 1.93014 16.7156 2.39898 17.1845C2.86782 17.6533 3.50371 17.9167 4.16675 17.9167H15.8334C16.4965 17.9167 17.1323 17.6533 17.6012 17.1845C18.07 16.7156 18.3334 16.0797 18.3334 15.4167V7.91671C18.3334 7.25367 18.07 6.61778 17.6012 6.14894C17.1323 5.6801 16.4965 5.41671 15.8334 5.41671ZM8.33341 4.58337C8.33341 4.36236 8.42121 4.1504 8.57749 3.99412C8.73377 3.83784 8.94573 3.75004 9.16675 3.75004H10.8334C11.0544 3.75004 11.2664 3.83784 11.4227 3.99412C11.5789 4.1504 11.6667 4.36236 11.6667 4.58337V5.41671H8.33341V4.58337ZM16.6667 15.4167C16.6667 15.6377 16.579 15.8497 16.4227 16.006C16.2664 16.1622 16.0544 16.25 15.8334 16.25H4.16675C3.94573 16.25 3.73377 16.1622 3.57749 16.006C3.42121 15.8497 3.33341 15.6377 3.33341 15.4167V11.2084H5.83341V12.0834C5.83341 12.3044 5.92121 12.5163 6.07749 12.6726C6.23377 12.8289 6.44573 12.9167 6.66675 12.9167C6.88776 12.9167 7.09972 12.8289 7.256 12.6726C7.41228 12.5163 7.50008 12.3044 7.50008 12.0834V11.2084H12.5001V12.0834C12.5001 12.3044 12.5879 12.5163 12.7442 12.6726C12.9004 12.8289 13.1124 12.9167 13.3334 12.9167C13.5544 12.9167 13.7664 12.8289 13.9227 12.6726C14.079 12.5163 14.1667 12.3044 14.1667 12.0834V11.2084H16.6667V15.4167ZM16.6667 9.58337H3.33341V7.91671C3.33341 7.69569 3.42121 7.48373 3.57749 7.32745C3.73377 7.17117 3.94573 7.08337 4.16675 7.08337H15.8334C16.0544 7.08337 16.2664 7.17117 16.4227 7.32745C16.579 7.48373 16.6667 7.69569 16.6667 7.91671V9.58337Z" fill="inherit"/>
  </symbol>

  <!-- Settings: Mono stroke -->
  <symbol id="settings" viewBox="0 0 25 25" fill="none">
    <path d="M12.5 15.625C14.2259 15.625 15.625 14.2259 15.625 12.5C15.625 10.7741 14.2259 9.375 12.5 9.375C10.7741 9.375 9.375 10.7741 9.375 12.5C9.375 14.2259 10.7741 15.625 12.5 15.625Z" stroke="inherit" stroke-width="1.5"/>
    <path d="M14.3383 2.24232C13.956 2.08398 13.4706 2.08398 12.4997 2.08398C11.5289 2.08398 11.0435 2.08398 10.6612 2.24232C10.4083 2.34702 10.1784 2.50054 9.98487 2.69411C9.7913 2.88768 9.63777 3.11751 9.53307 3.37044C9.43724 3.60273 9.3987 3.87461 9.38411 4.2694C9.37733 4.55474 9.29828 4.8337 9.15436 5.08019C9.01045 5.32667 8.80636 5.53262 8.5612 5.67878C8.31204 5.81812 8.0316 5.89198 7.74612 5.89343C7.46065 5.89489 7.17947 5.8239 6.9289 5.68711C6.5789 5.50169 6.32578 5.39961 6.07474 5.36628C5.52715 5.29427 4.97338 5.44264 4.53515 5.77878C4.20807 6.0319 3.96432 6.45169 3.4789 7.29232C2.99349 8.13294 2.74974 8.55273 2.69661 8.96419C2.66082 9.2355 2.67882 9.5112 2.7496 9.77554C2.82038 10.0399 2.94254 10.2877 3.10911 10.5048C3.26328 10.7048 3.4789 10.8725 3.81328 11.0829C4.30599 11.3923 4.62265 11.9194 4.62265 12.5007C4.62265 13.0819 4.30599 13.609 3.81328 13.9173C3.4789 14.1288 3.26224 14.2965 3.10911 14.4965C2.94254 14.7136 2.82038 14.9614 2.7496 15.2258C2.67882 15.4901 2.66082 15.7658 2.69661 16.0371C2.75078 16.4475 2.99349 16.8684 3.47786 17.709C3.96432 18.5496 4.20703 18.9694 4.53515 19.2225C4.75227 19.3891 5.00009 19.5113 5.26443 19.582C5.52877 19.6528 5.80447 19.6708 6.07578 19.635C6.32578 19.6017 6.5789 19.4996 6.9289 19.3142C7.17947 19.1774 7.46065 19.1064 7.74612 19.1079C8.0316 19.1093 8.31204 19.1832 8.5612 19.3225C9.06432 19.6142 9.36328 20.1507 9.38411 20.7319C9.3987 21.1277 9.4362 21.3986 9.53307 21.6309C9.63777 21.8838 9.7913 22.1136 9.98487 22.3072C10.1784 22.5008 10.4083 22.6543 10.6612 22.759C11.0435 22.9173 11.5289 22.9173 12.4997 22.9173C13.4706 22.9173 13.956 22.9173 14.3383 22.759C14.5912 22.6543 14.821 22.5008 15.0146 22.3072C15.2082 22.1136 15.3617 21.8838 15.4664 21.6309C15.5622 21.3986 15.6008 21.1277 15.6154 20.7319C15.6362 20.1507 15.9352 19.6132 16.4383 19.3225C16.6874 19.1832 16.9679 19.1093 17.2534 19.1079C17.5388 19.1064 17.82 19.1774 18.0706 19.3142C18.4206 19.4996 18.6737 19.6017 18.9237 19.635C19.195 19.6708 19.4707 19.6528 19.735 19.582C19.9994 19.5113 20.2472 19.3891 20.4643 19.2225C20.7924 18.9704 21.0352 18.5496 21.5206 17.709C22.006 16.8684 22.2497 16.4486 22.3029 16.0371C22.3387 15.7658 22.3207 15.4901 22.2499 15.2258C22.1791 14.9614 22.0569 14.7136 21.8904 14.4965C21.7362 14.2965 21.5206 14.1288 21.1862 13.9184C20.9424 13.7698 20.7402 13.5618 20.5987 13.3139C20.4571 13.0659 20.3808 12.7861 20.3768 12.5007C20.3768 11.9194 20.6935 11.3923 21.1862 11.084C21.5206 10.8725 21.7372 10.7048 21.8904 10.5048C22.0569 10.2877 22.1791 10.0399 22.2499 9.77554C22.3207 9.5112 22.3387 9.2355 22.3029 8.96419C22.2487 8.55378 22.006 8.13294 21.5216 7.29232C21.0352 6.45169 20.7924 6.0319 20.4643 5.77878C20.2472 5.6122 19.9994 5.49004 19.735 5.41926C19.4707 5.34848 19.195 5.33048 18.9237 5.36628C18.6737 5.39961 18.4206 5.50169 18.0695 5.68711C17.8191 5.82372 17.5381 5.8946 17.2528 5.89315C16.9676 5.89169 16.6873 5.81794 16.4383 5.67878C16.1931 5.53262 15.989 5.32667 15.8451 5.08019C15.7012 4.8337 15.6221 4.55474 15.6154 4.2694C15.6008 3.87357 15.5633 3.60273 15.4664 3.37044C15.3617 3.11751 15.2082 2.88768 15.0146 2.69411C14.821 2.50054 14.5912 2.34702 14.3383 2.24232Z" stroke="inherit" stroke-width="1.5"/>
  </symbol>

  <!-- Share (Profile and Project menus): Mono fill -->
  <symbol id="share" viewBox="0 0 27 27" fill="inherit">
    <path d="M12.3752 7.93125V4.5C12.3752 4.20163 12.2566 3.91548 12.0457 3.7045C11.8347 3.49353 11.5485 3.375 11.2502 3.375C10.955 3.37624 10.6722 3.49341 10.4627 3.70125L2.58766 11.5763C2.48221 11.6808 2.39852 11.8053 2.3414 11.9424C2.28429 12.0794 2.25488 12.2265 2.25488 12.375C2.25488 12.5235 2.28429 12.6706 2.3414 12.8076C2.39852 12.9447 2.48221 13.0692 2.58766 13.1738L10.4627 21.0487C10.6206 21.2036 10.8206 21.3084 11.0378 21.3501C11.255 21.3919 11.4797 21.3687 11.6837 21.2835C11.8878 21.1982 12.0622 21.0547 12.1852 20.8709C12.3082 20.6871 12.3742 20.4712 12.3752 20.25V16.7625H13.3314C15.1088 16.736 16.8707 17.0966 18.4948 17.8193C20.1189 18.5419 21.5662 19.6094 22.7364 20.9475C22.8774 21.1352 23.0737 21.2742 23.2976 21.3448C23.5215 21.4154 23.762 21.4141 23.9852 21.3413C24.2123 21.2646 24.409 21.1174 24.5466 20.9211C24.6842 20.7248 24.7556 20.4897 24.7502 20.25C24.7502 9.99 15.6602 8.235 12.3752 7.93125ZM13.3314 14.49C12.579 14.4885 11.8273 14.5374 11.0814 14.6363C10.8151 14.6767 10.5721 14.8113 10.3966 15.0157C10.2211 15.2201 10.1248 15.4806 10.1252 15.75V17.5388L4.97266 12.375L10.1252 7.21125V9C10.1252 9.29837 10.2437 9.58452 10.4547 9.7955C10.6656 10.0065 10.9518 10.125 11.2502 10.125C12.2739 10.125 20.3739 10.35 22.1289 17.3588C19.5816 15.4806 16.4962 14.4745 13.3314 14.49Z" fill="inherit"/>
  </symbol>

  <!-- Steam (social media): Color fill -->
  <symbol id="steam" viewBox="0 0 29 29" fill="inherit">
    <path d="M14.5001 2.4165C16.0869 2.4165 17.6582 2.72905 19.1242 3.33629C20.5902 3.94354 21.9222 4.83359 23.0443 5.95563C24.1663 7.07767 25.0564 8.40973 25.6636 9.87574C26.2709 11.3418 26.5834 12.913 26.5834 14.4998C26.5834 17.7045 25.3104 20.778 23.0443 23.044C20.7782 25.3101 17.7048 26.5832 14.5001 26.5832C8.94175 26.5832 4.28966 22.8615 2.85175 17.7986L7.47966 19.7078C7.63824 20.4818 8.05905 21.1774 8.67105 21.6771C9.28304 22.1768 10.0487 22.4501 10.8388 22.4507C12.7238 22.4507 14.2584 20.9161 14.2584 19.0311V18.874L18.3667 15.9378H18.4634C20.9767 15.9378 23.0188 13.8957 23.0188 11.3823C23.0188 8.869 20.9767 6.82692 18.4634 6.82692C15.9501 6.82692 13.8959 8.869 13.8959 11.3823V11.4428L11.0322 15.6236L10.8388 15.6115C10.1259 15.6115 9.46133 15.829 8.91758 16.2036L2.41675 13.5332C2.93633 7.31025 8.13216 2.4165 14.5001 2.4165ZM10.0051 20.7469C10.9717 21.1457 12.0834 20.6986 12.4822 19.7319C12.8809 18.7653 12.4217 17.6657 11.4792 17.2669L9.93258 16.6265C10.5247 16.409 11.1892 16.3969 11.8176 16.6628C12.458 16.9165 12.9534 17.4119 13.2072 18.0523C13.473 18.6807 13.473 19.3815 13.2072 20.0098C12.6876 21.3148 11.153 21.9432 9.848 21.3994C9.24383 21.1457 8.78466 20.6865 8.53091 20.1428L10.0051 20.7469ZM21.5084 11.3823C21.5084 13.0619 20.143 14.4273 18.4634 14.4273C17.6579 14.4241 16.8865 14.1019 16.3181 13.5312C15.7496 12.9605 15.4305 12.1878 15.4305 11.3823C15.4289 10.9836 15.5063 10.5885 15.6581 10.2198C15.81 9.85111 16.0333 9.51613 16.3153 9.23418C16.5972 8.95223 16.9322 8.72888 17.3009 8.57703C17.6696 8.42518 18.0647 8.34782 18.4634 8.34942C19.2689 8.34941 20.0416 8.66857 20.6123 9.237C21.183 9.80544 21.5052 10.5768 21.5084 11.3823ZM16.1917 11.3823C16.1917 12.639 17.2067 13.6661 18.4755 13.6661C19.7322 13.6661 20.7472 12.639 20.7472 11.3823C20.7472 10.1257 19.7322 9.09859 18.4755 9.09859C17.2067 9.09859 16.1917 10.1257 16.1917 11.3823Z" fill="inherit"/>
  </symbol>

  <!-- Warning (Report): NA -->
  <symbol id="warning" viewBox="0 0 28 28" fill="none">
    <path d="M14 19.8333C14.3306 19.8333 14.6078 19.7213 14.8318 19.4973C15.0558 19.2733 15.1674 18.9964 15.1667 18.6667C15.1659 18.3369 15.0539 18.06 14.8307 17.836C14.6074 17.612 14.3306 17.5 14 17.5C13.6694 17.5 13.3926 17.612 13.1693 17.836C12.9461 18.06 12.8341 18.3369 12.8333 18.6667C12.8326 18.9964 12.9446 19.2737 13.1693 19.4985C13.3941 19.7233 13.671 19.8349 14 19.8333ZM14 15.1667C14.3306 15.1667 14.6078 15.0547 14.8318 14.8307C15.0558 14.6067 15.1674 14.3298 15.1667 14V9.33333C15.1667 9.00278 15.0547 8.72589 14.8307 8.50267C14.6067 8.27944 14.3298 8.16744 14 8.16667C13.6702 8.16589 13.3933 8.27789 13.1693 8.50267C12.9453 8.72744 12.8333 9.00433 12.8333 9.33333V14C12.8333 14.3306 12.9453 14.6078 13.1693 14.8318C13.3933 15.0558 13.6702 15.1674 14 15.1667ZM10.5875 24.5C10.2764 24.5 9.98005 24.4417 9.6985 24.325C9.41694 24.2083 9.16883 24.0431 8.95417 23.8292L4.17083 19.0458C3.95694 18.8319 3.79167 18.5838 3.675 18.3015C3.55833 18.0192 3.5 17.7232 3.5 17.4137V10.5887C3.5 10.2776 3.55833 9.98122 3.675 9.69967C3.79167 9.41811 3.95694 9.17 4.17083 8.95533L8.95417 4.172C9.16806 3.95811 9.41617 3.79283 9.6985 3.67617C9.98083 3.5595 10.2772 3.50078 10.5875 3.5H17.4125C17.7236 3.5 18.0203 3.55833 18.3027 3.675C18.585 3.79167 18.8327 3.95694 19.0458 4.17083L23.8292 8.95417C24.0431 9.16806 24.2083 9.41617 24.325 9.6985C24.4417 9.98083 24.5 10.2772 24.5 10.5875V17.4125C24.5 17.7236 24.4417 18.0203 24.325 18.3027C24.2083 18.585 24.0431 18.8327 23.8292 19.0458L19.0458 23.8292C18.8319 24.0431 18.5838 24.2083 18.3015 24.325C18.0192 24.4417 17.7228 24.5 17.4125 24.5H10.5875ZM10.6167 22.1667H17.3833L22.1667 17.3833V10.6167L17.3833 5.83333H10.6167L5.83333 10.6167V17.3833L10.6167 22.1667Z" fill="#FF4B4B"/>
  </symbol>

  <!-- X (Social Media): Color fill -->
  <symbol id="x" viewBox="0 0 25 23" fill="inherit">
    <path d="M3.25937 0.395898C2.16875 1.04277 0.0210938 3.5084 0 4.15527V5.22949C0 6.58496 1.26953 7.78184 2.42109 7.78184C3.80469 7.78184 4.96094 6.63418 4.96094 5.27168C4.96094 6.63418 6.07109 7.78184 7.45859 7.78184C8.84219 7.78184 9.92031 6.63418 9.92031 5.27168C9.92031 6.63418 11.1047 7.78184 12.4883 7.78184H12.5133C13.9008 7.78184 15.0844 6.63418 15.0844 5.27168C15.0844 6.63418 16.1633 7.78184 17.5469 7.78184C18.9305 7.78184 20.0445 6.63418 20.0445 5.27168C20.0445 6.63418 21.1969 7.78184 22.5797 7.78184C23.7352 7.78184 25.0047 6.58496 25.0047 5.22949V4.15527C24.9797 3.5084 22.8359 1.04277 21.7414 0.395898C18.3516 0.274023 16.0039 0.25293 12.5047 0.25293C9.00156 0.256836 4.22891 0.309961 3.26406 0.395898H3.25937ZM9.90391 7.14121C9.77046 7.37016 9.60616 7.57968 9.41562 7.76387V7.76777C8.87207 8.2968 8.14366 8.59304 7.38516 8.59355C6.6255 8.59429 5.89609 8.29596 5.35469 7.76309C5.16929 7.5821 5.01136 7.37495 4.88594 7.14824C4.75547 7.38027 4.57344 7.57949 4.38203 7.76309C3.84062 8.29596 3.11122 8.59429 2.35156 8.59355H2.34766C2.25427 8.5895 2.16218 8.57024 2.075 8.53652C1.97992 9.55936 1.92155 10.5853 1.9 11.6123V11.6162C1.89609 12.0279 1.89609 12.3607 1.89141 12.8287C1.91641 15.2623 1.65156 20.7107 2.96641 22.0498C5.00078 22.5217 8.74453 22.7373 12.4953 22.7412H12.4992C16.2547 22.7373 19.9937 22.5217 22.0281 22.0498C23.343 20.7115 23.0781 15.2623 23.1031 12.8287C23.0992 12.3607 23.0992 12.0279 23.0945 11.6162V11.6123C23.0751 10.5852 23.0167 9.5592 22.9195 8.53652C22.8328 8.57171 22.7404 8.59103 22.6469 8.59355H22.643C21.8833 8.59429 21.1539 8.29596 20.6125 7.76309H20.6164C20.425 7.57949 20.2422 7.38105 20.1125 7.14824H20.1086C19.9844 7.3747 19.8278 7.58183 19.6437 7.76309C19.1018 8.2951 18.3727 8.59316 17.6133 8.59316C16.8538 8.59316 16.1248 8.2951 15.5828 7.76309C15.3949 7.58146 15.2332 7.37452 15.1023 7.14824L15.0938 7.13574C14.9594 7.37637 14.7969 7.5834 14.6133 7.76309C14.0719 8.29596 13.3425 8.59429 12.5828 8.59355H12.5789C12.5539 8.59408 12.5268 8.59277 12.4977 8.58965C12.4695 8.59277 12.4411 8.59408 12.4125 8.59355H12.4086C11.6506 8.59306 10.9231 8.29482 10.3828 7.76309C10.1949 7.58258 10.0346 7.37542 9.90703 7.14824L9.89844 7.13574L9.90391 7.14121ZM7.81641 9.83965C8.64219 9.84355 9.375 9.83965 10.2859 10.8326C11.0016 10.76 11.7508 10.7232 12.4992 10.7232C13.2477 10.7232 13.9969 10.76 14.7125 10.8326C15.6242 9.83965 16.3563 9.83965 17.182 9.83965H17.1859C17.5766 9.83965 19.1391 9.83965 20.2258 12.8959L21.3938 17.0904C22.2602 20.2115 21.1164 20.2896 19.693 20.2896C17.5773 20.2115 16.4055 18.674 16.4055 17.1357C15.2336 17.3318 13.8656 17.4256 12.4992 17.4256C11.1328 17.4256 9.76484 17.3318 8.59688 17.1357C8.59688 18.674 7.425 20.2115 5.30937 20.2896C3.88125 20.2857 2.7375 20.2115 3.60391 17.0904L4.77187 12.8959C5.8625 9.83965 7.425 9.83965 7.81562 9.83965H7.81641ZM12.5 12.2443C12.4961 12.2443 10.2742 14.2912 9.87187 15.0154L11.3281 14.9584V16.2279C11.3281 16.2896 11.9148 16.2646 12.5 16.2365C13.0852 16.2646 13.668 16.2896 13.668 16.2279V14.9584L15.1281 15.0154C14.7258 14.2912 12.5 12.2443 12.5 12.2443Z" fill="inherit"/>
  </symbol>

  <!-- YouTube: Color fill -->
  <symbol id="youtube" viewBox="0 0 31 31" fill="inherit">
    <path d="M12.9168 19.3752L19.6206 15.5002L12.9168 11.6252V19.3752ZM27.8485 9.26141C28.0164 9.8685 28.1327 10.6822 28.2102 11.7156C28.3006 12.7489 28.3393 13.6402 28.3393 14.4152L28.4168 15.5002C28.4168 18.3289 28.2102 20.4085 27.8485 21.7389C27.5256 22.9014 26.7764 23.6506 25.6139 23.9735C25.0068 24.1414 23.896 24.2577 22.191 24.3352C20.5118 24.4256 18.9747 24.4643 17.5539 24.4643L15.5002 24.5418C10.0881 24.5418 6.71683 24.3352 5.38641 23.9735C4.22391 23.6506 3.47475 22.9014 3.15183 21.7389C2.98391 21.1318 2.86766 20.3181 2.79016 19.2847C2.69975 18.2514 2.661 17.3602 2.661 16.5852L2.5835 15.5002C2.5835 12.6714 2.79016 10.5918 3.15183 9.26141C3.47475 8.09891 4.22391 7.34975 5.38641 7.02683C5.9935 6.85891 7.10433 6.74266 8.80933 6.66516C10.4885 6.57475 12.0256 6.536 13.4464 6.536L15.5002 6.4585C20.9122 6.4585 24.2835 6.66516 25.6139 7.02683C26.7764 7.34975 27.5256 8.09891 27.8485 9.26141Z" fill="inherit"/>
  </symbol>
</svg>